<svg xmlns="http://www.w3.org/2000/svg" viewBox="0 0 512 512">
    <circle cx="256" cy="256" r="240" fill="#f5a623"/>
    <path d="M349.5 64.3c-10.4-1.6-20.7 2.4-27.4 10.5l-65.7 81.3-65.7-81.3c-6.7-8.1-17-12.1-27.4-10.5-12.8 2-22.3 13-22.3 25.9v332.8c0 14.4 10.7 26.6 25 28.5 14.4 2 27-8.2 28.9-22.6.1-1 .1-2 .1-3.1V171.1l41.5 51.3c6.7 8.3 17 12.3 27.4 10.7 10.4-1.6 19.3-8 23.9-17.3l21.4-43.1 21.4 43.1c4.6 9.3 13.5 15.7 23.9 17.3 10.4 1.6 20.7-2.4 27.4-10.7l41.5-51.3v253.7c0 1.1 0 2.1.1 3.1 1.9 14.4 14.5 24.6 28.9 22.6 14.3-1.9 25-14.1 25-28.5V90.2c0-12.9-9.5-23.9-22.3-25.9z" fill="#0a0a0b"/>
</svg>